<?xml version="1.0" encoding="utf-8"?>
<!-- Generator: Adobe Illustrator 26.2.1, SVG Export Plug-In . SVG Version: 6.00 Build 0)  -->
<svg version="1.1" id="Layer_1" xmlns="http://www.w3.org/2000/svg" xmlns:xlink="http://www.w3.org/1999/xlink" x="0px" y="0px"
	 viewBox="0 0 29.1 20.5" style="enable-background:new 0 0 29.1 20.5;" xml:space="preserve">
<style type="text/css">
	.st0{fill:none;}
	.st1{fill:#FFFFFF;}
</style>
<rect x="-468" y="-540.8" class="st0" width="1512" height="982"/>
<g id="content">
	<g id="Iconsax_x2F_Bold_x2F_cloudsunny">
		<path id="Vector" class="st1" d="M27.1,8.7c-1.1-1.1-2.6-1.9-4.2-2.2c-0.4-1.4-1-2.7-2-3.7l-0.1-0.1c-3.2-3.3-8.5-3.3-12-1.6
			c-3,1.5-5.6,4.6-4.3,9.1c-3.1,0.6-4.5,3-4.5,5.1c0,2.4,1.8,5,5.8,5.2h15.1c2.1,0,4.1-0.7,5.6-1.9C30.1,15.9,29.6,11.3,27.1,8.7z
			 M28.7,6.1c0,0.4-0.1,0.8-0.2,1.2c-1.1-1-2.4-1.9-3.9-2.3c-0.5-1.3-1.2-2.5-2.2-3.5c0.3,0,0.6-0.1,0.8-0.1c1.4,0,2.8,0.5,3.8,1.4
			S28.7,4.9,28.7,6.1z"/>
	</g>
</g>
</svg>
